<svg xmlns="http://www.w3.org/2000/svg" xmlns:xlink="http://www.w3.org/1999/xlink" height="17" width="17">
  <g opacity="0.3835100446428572">
    <g opacity="1">
      <path fill="rgb(0,0,0)" fill-opacity="1" opacity="1" fill-rule="evenodd" d="M0 7.506492614746094C0 3.367523193359375 3.367523193359375 0 7.506500244140625 0C11.64569091796875 0 15.01300048828125 3.367523193359375 15.01300048828125 7.506492614746094C15.01300048828125 11.64569091796875 11.64569091796875 15.012985229492188 7.506500244140625 15.012985229492188C3.367523193359375 15.012985229492188 0 11.64569091796875 0 7.506492614746094ZM1.38580322265625 7.50653076171875C1.38580322265625 10.881446838378906 4.131561279296875 13.627212524414062 7.5064697265625 13.627212524414062C10.88140869140625 13.627212524414062 13.627166748046875 10.88140869140625 13.627166748046875 7.506500244140625C13.627166748046875 4.131584167480469 10.88140869140625 1.3858184814453125 7.5064697265625 1.3858184814453125C4.131561279296875 1.3858184814453125 1.38580322265625 4.131614685058594 1.38580322265625 7.50653076171875Z"/>
    </g>
    <g opacity="1">
      <path fill="rgb(0,0,0)" fill-opacity="1" opacity="1" fill-rule="evenodd" d="M16.799242610832216 15.830398950383351L12.87090616437419 11.90205640229016C12.603229645483818 11.634379467634878 12.169732609356847 11.634379467634878 11.902056090466475 11.90205640229016C11.634379571576105 12.169502893144855 11.634379571576105 12.60346149019638 11.902056090466475 12.870907981051076L15.8303925369245 16.799250529144267C15.964214336123781 16.93307253620044 16.139417193525645 16.999999999999993 16.314817573878358 16.999999999999993C16.489987510788414 16.999999999999993 16.665387891141123 16.933072536200438 16.799242610832213 16.799250529144267C17.066919129722585 16.53180403828957 17.066919129722585 16.097845441238047 16.799242610832216 15.830398950383351Z"/>
    </g>
  </g>
</svg>